<svg width="464" height="143" viewBox="0 0 464 143" fill="none" xmlns="http://www.w3.org/2000/svg">
<path d="M35.8301 143C54.9503 143 69.002 130.655 71.3222 112.612H71.6602V143H107.49V71.5C107.49 50.5862 92.6209 35.75 71.4811 35.75H0V71.5H30.4556V71.8373C12.3729 74.1523 0 88.1727 0 107.25C0 128.164 14.8695 143 35.8301 143ZM35.8301 105.462V73.2875C35.8301 72.215 36.5467 71.5 37.6216 71.5H69.8687C70.9436 71.5 71.6602 72.215 71.6602 73.2875V105.462C71.6602 106.535 70.9436 107.25 69.8687 107.25H37.6216C36.5467 107.25 35.8301 106.535 35.8301 105.462ZM125.405 143H161.236V0H125.405V143ZM179.151 143H214.981V0H179.151V143ZM232.896 107.25C232.896 128.164 247.765 143 268.905 143H340.386V107.25H308.318V106.892C326.412 104.569 338.774 90.6262 338.774 71.5C338.774 50.5862 323.904 35.75 302.944 35.75H268.726C247.765 35.75 232.896 50.5862 232.896 71.5V107.25ZM268.726 105.462V73.2875C268.726 72.215 269.442 71.5 270.517 71.5H301.152C302.227 71.5 302.944 72.215 302.944 73.2875V105.462C302.944 106.535 302.227 107.25 301.152 107.25H270.517C269.442 107.25 268.726 106.535 268.726 105.462ZM356.51 107.25C356.51 128.164 371.379 143 392.34 143H428.17C449.131 143 464 128.164 464 107.25V71.5C464 50.5862 449.131 35.75 428.17 35.75H392.34C371.379 35.75 356.51 50.5862 356.51 71.5V107.25ZM392.34 105.462V73.2875C392.34 72.215 393.056 71.5 394.131 71.5H426.378C427.453 71.5 428.17 72.215 428.17 73.2875V105.462C428.17 106.535 427.453 107.25 426.378 107.25H394.131C393.056 107.25 392.34 106.535 392.34 105.462Z" fill="#6DA8FF"/>
</svg>
